<svg width="53" height="53" viewBox="0 0 53 53" fill="none" xmlns="http://www.w3.org/2000/svg">
<circle cx="26.5" cy="26.5" r="26" fill="#E5E5E5" stroke="black"/>
<g clip-path="url(#clip0_372:30)">
<path d="M31.8941 38.7944H13.9309C12.8754 38.7944 12.0168 37.9357 12.0168 36.8802V16.1197C12.0168 15.0642 12.8754 14.2055 13.9309 14.2055H17.3585C17.6393 14.2055 17.8668 13.978 17.8668 13.6972C17.8668 13.4164 17.6393 13.1888 17.3585 13.1888H13.9309C12.3148 13.1888 11 14.5037 11 16.1197V36.8802C11 38.4964 12.3148 39.8112 13.9309 39.8112H31.8941C32.1749 39.8112 32.4025 39.5836 32.4025 39.3028C32.4025 39.0221 32.1749 38.7944 31.8941 38.7944Z" fill="black"/>
<path d="M39.0691 13.1887H19.236C18.9551 13.1887 18.7276 13.4163 18.7276 13.6971C18.7276 13.9778 18.9551 14.2055 19.236 14.2055H39.0692C40.1246 14.2055 40.9833 15.0642 40.9833 16.1197V36.8802C40.9833 37.9357 40.1246 38.7944 39.0692 38.7944H33.9276C33.6468 38.7944 33.4192 39.022 33.4192 39.3027C33.4192 39.5835 33.6468 39.8111 33.9276 39.8111H39.0692C40.6853 39.8111 42.0001 38.4963 42.0001 36.8801V16.1197C42 14.5036 40.6852 13.1887 39.0691 13.1887Z" fill="black"/>
<path d="M37.6713 15.4679H15.3288C14.1985 15.4679 13.279 16.3874 13.279 17.5176V20.7914C13.2788 20.7983 13.2789 20.805 13.279 20.8119V35.4824C13.279 36.6103 14.1947 37.5282 15.3217 37.532C15.324 37.532 15.3264 37.5324 15.3288 37.5324C15.3294 37.5324 15.3299 37.5323 15.3305 37.5323H22.8338C22.8345 37.5323 22.8353 37.5324 22.836 37.5324C22.836 37.5324 22.837 37.5323 22.8376 37.5323H37.6713C38.8015 37.5322 39.721 36.6127 39.721 35.4825V25.1683C39.721 25.1681 39.721 25.1677 39.721 25.1675V17.5176C39.721 16.3874 38.8015 15.4679 37.6713 15.4679ZM15.0039 36.4623C14.5931 36.3256 14.2958 35.9384 14.2958 35.4824V31.7694C15.3923 30.5722 16.7574 29.9324 18.3577 29.8703C18.8491 29.8512 19.2926 29.8919 19.6524 29.949C17.5948 31.7609 15.9262 34.2162 15.0039 36.4623ZM14.2958 21.0678C14.7347 20.7797 15.2412 20.6285 15.7743 20.6285C16.9419 20.6285 17.9737 21.3728 18.3418 22.4807C18.3901 22.6262 18.5016 22.7421 18.6452 22.7961C18.7886 22.8501 18.949 22.8365 19.0813 22.759C19.5331 22.4942 20.0493 22.3543 20.5742 22.3543C22.0683 22.3543 23.3307 23.4715 23.5104 24.9529C23.5388 25.1877 23.7256 25.3719 23.9608 25.3971C25.0161 25.5105 25.8825 26.2705 26.1686 27.2587C25.3378 27.2076 24.4811 27.3179 23.6141 27.5933C22.5902 27.9185 21.599 28.4541 20.6687 29.1324C20.2564 29.0132 19.4089 28.8185 18.3622 28.8529C17.2454 28.8896 15.718 29.2025 14.2958 30.3697V21.0678H14.2958ZM38.7042 35.4824C38.7042 36.052 38.2408 36.5154 37.6713 36.5154H23.6649C23.9649 35.974 24.3072 35.4459 24.6426 34.9306C24.8686 34.5832 25.1023 34.2239 25.3215 33.8631C25.4671 33.6231 25.3907 33.3104 25.1507 33.1647C24.9108 33.019 24.5981 33.0954 24.4523 33.3354C24.2414 33.6827 24.0121 34.0352 23.7903 34.3761C23.3458 35.0594 22.8883 35.7633 22.5157 36.5154H16.0842C17.8844 32.3544 21.3185 29.3891 23.9217 28.5622C25.4768 28.0684 26.9369 28.1775 28.2717 28.8853C28.1741 28.9753 28.077 29.0663 27.9802 29.1588C27.3297 29.7809 26.6873 30.47 26.0707 31.2072C26.0004 31.2912 25.9307 31.3756 25.8614 31.4603C25.6838 31.6777 25.7161 31.998 25.9335 32.1756C26.1443 32.3479 26.4726 32.3192 26.6488 32.1036C26.7156 32.0219 26.7827 31.9406 26.8505 31.8596C27.4431 31.1512 28.0596 30.4898 28.6829 29.8937C29.3897 29.2178 30.1197 28.6123 30.8525 28.0939C31.6616 27.5215 32.4931 27.0417 33.324 26.6678C34.2351 26.2578 35.1688 25.9646 36.099 25.7964C36.956 25.6414 37.8303 25.5899 38.7041 25.6405V35.4824H38.7042ZM38.7042 24.6228C37.7695 24.5732 36.8349 24.6301 35.918 24.7959C34.9064 24.9788 33.8933 25.2967 32.9068 25.7406C32.0164 26.1413 31.1277 26.6538 30.2653 27.2639C29.8683 27.5447 29.4726 27.8497 29.0809 28.1758C28.4944 27.8234 27.8789 27.571 27.2428 27.4188C27.0149 25.9606 25.8954 24.7674 24.4546 24.4492C24.0566 22.6506 22.4515 21.3376 20.5741 21.3376C20.0615 21.3376 19.5548 21.437 19.083 21.628C18.4527 20.4023 17.1855 19.6118 15.7743 19.6118C15.2566 19.6118 14.7572 19.7159 14.2957 19.9163V17.5177H14.2958C14.2958 16.9481 14.7592 16.4847 15.3288 16.4847H37.6712C38.2408 16.4847 38.7041 16.9481 38.7041 17.5177V24.6228H38.7042Z" fill="black"/>
<path d="M31.6247 19.0116C30.1448 19.0116 28.9408 20.2156 28.9408 21.6955C28.9408 23.1754 30.1448 24.3794 31.6247 24.3794C33.1046 24.3794 34.3086 23.1754 34.3086 21.6955C34.3087 20.2156 33.1046 19.0116 31.6247 19.0116ZM31.6247 23.3628C30.7053 23.3628 29.9575 22.6149 29.9575 21.6956C29.9575 20.7762 30.7054 20.0284 31.6247 20.0284C32.544 20.0284 33.2919 20.7762 33.2919 21.6956C33.2919 22.6149 32.544 23.3628 31.6247 23.3628Z" fill="black"/>
</g>
<defs>
<clipPath id="clip0_372:30">
<rect width="31" height="31" fill="white" transform="translate(11 11)"/>
</clipPath>
</defs>
</svg>
